<svg id="placeholder" xmlns="http://www.w3.org/2000/svg" width="300" height="200" viewBox="0 0 300 200"> <path id="Path_38744" data-name="Path 38744" d="M4013,1869c-8.271,0-15-6.116-15-13.636V1682.636c0-7.52,6.729-13.636,15-13.636h270c8.271,0,15,6.116,15,13.636v172.727c0,7.52-6.729,13.636-15,13.636Zm196.507-144.125-148.584,135.034H4283a4.8,4.8,0,0,0,5-4.545v-65.524l-71.483-64.942a5.327,5.327,0,0,0-7.01-.023Zm-155,31.818L4008,1798.974v56.39a4.794,4.794,0,0,0,5,4.545h33.78l64.158-58.308-49.42-44.885a5.331,5.331,0,0,0-7.012-.023Zm14.1-6.387,49.4,44.869,84.4-76.71c5.624-5.171,15.524-5.193,21.193.023l64.393,58.5v-94.348a4.8,4.8,0,0,0-5-4.545H4013a4.8,4.8,0,0,0-5,4.545v103.482l39.414-35.833a16.358,16.358,0,0,1,21.2.02Zm24.39-22.215c0-15.039,13.457-27.273,30-27.273s30,12.234,30,27.273-13.457,27.273-30,27.273S4093,1743.13,4093,1728.091Zm10,0c0,10.025,8.973,18.181,20,18.181s20-8.156,20-18.181-8.972-18.182-20-18.182S4103,1718.065,4103,1728.091Z" transform="translate(-3998 -1669)" fill="#f5f5f5"/> </svg>
